<?xml version="1.0" encoding="UTF-8"?>
<svg version="1.1" xmlns="http://www.w3.org/2000/svg" width="180" height="180">
<path d="M0 0 C1.04800781 0.49242187 2.09601563 0.98484375 3.17578125 1.4921875 C23.88086385 11.85712705 39.71584642 29.96278177 47.4375 51.75 C48.34765223 54.48499987 49.19477028 57.23243349 50 60 C50.26683594 60.90621094 50.53367188 61.81242187 50.80859375 62.74609375 C55.16935148 81.54246329 52.30530621 102.82208525 44 120 C43.50757813 121.04800781 43.01515625 122.09601563 42.5078125 123.17578125 C31.64098474 144.88343957 12.92913485 159.44277455 -9.5546875 167.96875 C-32.64383236 175.53896143 -57.55535556 173.26082473 -79.1875 162.6875 C-85.02162774 159.73212127 -90.07192227 156.28841865 -95 152 C-95.79792969 151.34515625 -96.59585938 150.6903125 -97.41796875 150.015625 C-114.66322048 135.36384524 -124.57752132 115.22637394 -128 93 C-128.26155178 89.34853855 -128.28708817 85.72207931 -128.25 82.0625 C-128.24323242 81.09393066 -128.23646484 80.12536133 -128.22949219 79.12744141 C-128.13446663 72.57178273 -127.79203521 66.33868454 -126 60 C-125.74347656 59.06800781 -125.48695312 58.13601562 -125.22265625 57.17578125 C-117.88718899 33.09152179 -102.59986119 14.77863178 -81.02734375 2.27734375 C-55.95692883 -10.91583557 -25.70233651 -12.42675715 0 0 Z M-76 4 C-75.59030472 4.476082 -75.18060944 4.952164 -74.75849915 5.44267273 C-74.21984726 6.0696254 -73.68119537 6.69657806 -73.1262207 7.3425293 C-72.32605278 8.2732148 -72.32605278 8.2732148 -71.50971985 9.22270203 C-69.67971308 11.37705359 -67.92859841 13.58586652 -66.1875 15.8125 C-63.40085852 19.32101431 -60.5192548 22.68973269 -57.5 26 C-54.62927746 29.14900687 -51.8847041 32.33876894 -49.25 35.6875 C-44.26971947 42.00178425 -38.95452813 48.01840539 -33.67138672 54.07861328 C-25.66182065 63.28622136 -17.78205759 72.5995499 -10 82 C-10.804375 82.928125 -11.60875 83.85625 -12.4375 84.8125 C-15.1192783 87.93494609 -17.72250114 91.11362422 -20.3125 94.3125 C-23.28693509 97.96452834 -26.32820151 101.51821771 -29.5 105 C-32.52282421 108.31989486 -35.42512161 111.69764112 -38.25 115.1875 C-42.92192529 120.9563121 -47.77833282 126.55092947 -52.65234375 132.1484375 C-56.41938112 136.47521784 -60.15130329 140.83166761 -63.87524414 145.19555664 C-67.15476327 149.03357472 -70.48641203 152.81845127 -73.890625 156.546875 C-75.20227181 157.96024896 -75.20227181 157.96024896 -75 160 C-69.7717426 160.27410207 -64.54774756 160.47246905 -59.31396484 160.60424805 C-57.53848372 160.659218 -55.76349263 160.73403129 -53.98974609 160.82983398 C-43.2319218 161.7557882 -43.2319218 161.7557882 -33.70678711 157.70239258 C-31.16733015 154.92296105 -29.08372281 152.13039741 -27 149 C-25.45328101 147.09126989 -23.89268663 145.19361682 -22.3125 143.3125 C-21.58804688 142.41273438 -20.86359375 141.51296875 -20.1171875 140.5859375 C-17.57935358 137.48622153 -14.92172551 134.51099766 -12.21484375 131.55859375 C-10.79507954 130.06644935 -10.79507954 130.06644935 -11 128 C-10.34 128 -9.68 128 -9 128 C-7.40085835 126.26144745 -7.40085835 126.26144745 -5.6875 123.9375 C-2.16646697 119.42319183 1.48612049 115.06367218 5.25 110.75 C5.80147705 110.11707031 6.3529541 109.48414062 6.92114258 108.83203125 C8.04946204 107.53711537 9.17796232 106.24235702 10.30664062 104.94775391 C13.05204165 101.78990942 15.77726008 98.6148845 18.5 95.4375 C18.97985352 94.87836914 19.45970703 94.31923828 19.95410156 93.74316406 C23.00039377 90.18737253 26.00941938 86.60278281 29 83 C27.49993609 79.55220914 25.49590738 77.17639467 22.9375 74.4375 C17.24000244 68.21955795 11.90924479 61.73403068 6.7265625 55.08203125 C6.01242188 54.16808594 5.29828125 53.25414062 4.5625 52.3125 C3.92441406 51.48363281 3.28632813 50.65476563 2.62890625 49.80078125 C2.09136719 49.20652344 1.55382812 48.61226562 1 48 C0.34 48 -0.32 48 -1 48 C-1.27602051 47.40558105 -1.55204102 46.81116211 -1.83642578 46.19873047 C-2.93794952 44.11725276 -4.06503249 42.57789176 -5.6171875 40.8203125 C-6.13571289 40.22831055 -6.65423828 39.63630859 -7.18847656 39.02636719 C-8.02330566 38.08519043 -8.02330566 38.08519043 -8.875 37.125 C-10.05502485 35.7789415 -11.23470451 34.43258031 -12.4140625 33.0859375 C-13.01250977 32.40499023 -13.61095703 31.72404297 -14.22753906 31.02246094 C-16.92147287 27.9485563 -19.58837454 24.8518812 -22.25 21.75 C-22.69585449 21.23324707 -23.14170898 20.71649414 -23.60107422 20.18408203 C-24.04725098 19.66442871 -24.49342773 19.14477539 -24.953125 18.609375 C-25.43724854 18.07030518 -25.92137207 17.53123535 -26.42016602 16.97583008 C-28 15 -28 15 -29.65600586 12.1550293 C-33.27331031 6.49407699 -33.27331031 6.49407699 -39.06488037 3.43011475 C-45.0545855 2.62306315 -51.04786697 2.99787182 -57.0625 3.3125 C-58.90024392 3.36774735 -60.73814764 3.41792517 -62.57617188 3.46289062 C-67.05476159 3.58342629 -71.5256066 3.77276857 -76 4 Z M-75 33 C-75 65.34 -75 97.68 -75 131 C-67.60498398 123.60498398 -60.82473669 115.84585507 -54.25 107.71875 C-52.06498431 105.07852271 -49.80828609 102.5327028 -47.5 100 C-44.25746643 96.42005994 -41.06049037 92.81003089 -37.9375 89.125 C-37.18339844 88.24070313 -36.42929688 87.35640625 -35.65234375 86.4453125 C-33.62674535 83.93949106 -33.62674535 83.93949106 -34 80 C-35.66534674 77.69972935 -35.66534674 77.69972935 -37.9375 75.4375 C-41.19468738 71.96215209 -44.32208098 68.4579005 -47.3125 64.75 C-51.27664715 59.85351859 -55.3490862 55.06340342 -59.46337891 50.29345703 C-63.76315086 45.30075233 -67.96331086 40.23142564 -72.13671875 35.1328125 C-72.75160156 34.42898437 -73.36648437 33.72515625 -74 33 C-74.33 33 -74.66 33 -75 33 Z " fill="#252424" transform="translate(128,8)"/>
<path d="M0 0 C5.3889947 -0.27367932 10.77388358 -0.47228109 16.16821289 -0.60424805 C17.99900809 -0.6592865 19.82932584 -0.73415181 21.65844727 -0.82983398 C36.85607184 -1.60441992 36.85607184 -1.60441992 42.1171875 2.33276367 C44.38806812 5.11752891 46.18455599 7.90589822 48 11 C49.33975863 12.59282078 50.71005446 14.16107923 52.125 15.6875 C52.78113281 16.41839844 53.43726563 17.14929688 54.11328125 17.90234375 C54.73589844 18.59457031 55.35851562 19.28679688 56 20 C58.35266031 22.65018644 60.68147375 25.3199102 63 28 C63.44875488 28.5170752 63.89750977 29.03415039 64.35986328 29.56689453 C65.87007515 31.31104798 67.37316761 33.06112866 68.875 34.8125 C69.36395752 35.37614258 69.85291504 35.93978516 70.35668945 36.52050781 C72.47844936 39.00754692 73.95556756 40.86670267 75 44 C75.66 44 76.32 44 77 44 C78.48828125 45.66015625 78.48828125 45.66015625 80.3125 48.0625 C83.9317952 52.70550096 87.69559468 57.18624397 91.5625 61.625 C92.40361328 62.59107178 92.40361328 62.59107178 93.26171875 63.57666016 C94.83944193 65.38593741 96.41933046 67.19329681 98 69 C98.78890625 69.90363281 99.5778125 70.80726562 100.390625 71.73828125 C101.92497756 73.49405461 103.46098154 75.24831717 105 77 C103.37514013 80.80344293 100.86670274 83.71820951 98.1875 86.8125 C97.70539063 87.37582031 97.22328125 87.93914062 96.7265625 88.51953125 C95.15623977 90.35090507 93.57921296 92.17628839 92 94 C91.46842285 94.61407715 90.9368457 95.2281543 90.38916016 95.86083984 C88.21595978 98.36948749 86.04120024 100.87677523 83.86499023 103.3828125 C80.1396028 107.67545836 76.43166352 111.98227853 72.75 116.3125 C72.28400391 116.85777344 71.81800781 117.40304688 71.33789062 117.96484375 C68.91622089 120.80935665 68.91622089 120.80935665 67 124 C66.34 124 65.68 124 65 124 C64.78085938 124.52851563 64.56171875 125.05703125 64.3359375 125.6015625 C62.50942343 128.88074272 60.08952812 131.5683523 57.625 134.375 C56.65860273 135.48676065 55.69247272 136.59875367 54.7265625 137.7109375 C54.15873047 138.33436035 53.59089844 138.9577832 53.00585938 139.60009766 C51.37615309 141.54995315 50.00535338 143.45996771 48.60351562 145.56787109 C42.0001593 154.99759877 42.0001593 154.99759877 36.81646729 156.72955322 C30.96365193 157.718463 25.13977048 157.28388938 19.25 156.875 C17.47420645 156.8046298 15.6981421 156.74077674 13.921875 156.68359375 C9.6077892 156.53069035 5.30694268 156.2901479 1 156 C2.62922557 152.56392992 4.51869265 150.16293156 7.125 147.375 C10.21812226 144.00517671 13.17451823 140.59709929 16 137 C18.70132387 133.57119089 21.49688503 130.28851261 24.4375 127.0625 C27.48217847 123.72217132 30.40695745 120.32602242 33.25 116.8125 C38.45274078 110.38824616 43.88700606 104.17471771 49.31396484 97.94042969 C52.09474625 94.74007483 54.86202981 91.52823475 57.625 88.3125 C58.12169189 87.73653076 58.61838379 87.16056152 59.13012695 86.56713867 C61.52250707 83.78010496 63.84349028 80.97424663 66 78 C59.85510357 70.81434633 53.69767671 63.64021076 47.5 56.5 C30.70512073 37.13829456 30.70512073 37.13829456 24.3125 29.25 C21.44721595 25.71752887 18.50124004 22.29924888 15.4375 18.9375 C9.93846865 12.8991591 4.89027533 6.53694818 0 0 Z " fill="#FCFCFC" transform="translate(52,12)"/>
<path d="M0 0 C7.37258815 7.37258815 14.29017117 14.99347145 20.73046875 23.19140625 C25.13994609 28.64822932 29.80114215 33.89331106 34.41503906 39.17724609 C36.95993654 42.10395659 39.4810002 45.05099597 42 48 C40.12734874 51.99807279 37.51887595 55.07817929 34.625 58.375 C33.53374492 59.63271772 32.44260218 60.89053292 31.3515625 62.1484375 C30.5147998 63.1089502 30.5147998 63.1089502 29.66113281 64.08886719 C27.09129794 67.04546145 24.54636779 70.02320087 22 73 C21.01049606 74.15371393 20.02091227 75.30735938 19.03125 76.4609375 C16.92254385 78.92063586 14.81924367 81.38484801 12.71875 83.8515625 C12.17992188 84.48320313 11.64109375 85.11484375 11.0859375 85.765625 C10.05852071 86.97018262 9.03239522 88.17584333 8.0078125 89.3828125 C5.43591411 92.39520178 2.80808103 95.19191897 0 98 C0 65.66 0 33.32 0 0 Z " fill="#E9203E" transform="translate(53,41)"/>
<path d="M0 0 C0.33 0 0.66 0 1 0 C1 26.07 1 52.14 1 79 C-26.39 79 -53.78 79 -82 79 C-82 78.67 -82 78.34 -82 78 C-80.8140625 77.86464844 -79.628125 77.72929687 -78.40625 77.58984375 C-54.60389821 74.55056164 -32.90194431 63.24570254 -18 44 C-8.2479662 30.24340764 -3.0332649 16.45100139 0 0 Z " fill="#FBFBFB" transform="translate(179,101)"/>
<path d="M0 0 C1.79071849 3.58143697 2.54121322 6.13883429 3.3125 10 C4.81812238 16.73013204 7.06572958 22.76993014 10 29 C10.41894531 29.90363281 10.83789062 30.80726563 11.26953125 31.73828125 C22.45070108 54.00395373 43.03192411 67.84112334 66.09375 75.71484375 C70.34269955 77.03781213 74.59203422 77.5360036 79 78 C79 78.33 79 78.66 79 79 C52.93 79 26.86 79 0 79 C0 52.93 0 26.86 0 0 Z " fill="#FCFCFC" transform="translate(0,101)"/>
<path d="M0 0 C26.07 0 52.14 0 79 0 C79 26.07 79 52.14 79 79 C78.67 79 78.34 79 78 79 C77.88785156 78.10474609 77.88785156 78.10474609 77.7734375 77.19140625 C74.26069443 54.01418971 62.6052538 33.13582288 43.87890625 18.89599609 C33.58203959 11.4342077 22.51364834 5.64819384 10 3 C9.04222656 2.79632813 8.08445312 2.59265625 7.09765625 2.3828125 C4.73530202 1.89907657 2.37133126 1.43723028 0 1 C0 0.67 0 0.34 0 0 Z " fill="#FCFCFC" transform="translate(101,0)"/>
<path d="M0 0 C26.07 0 52.14 0 79 0 C79 0.33 79 0.66 79 1 C78.10474609 1.11214844 78.10474609 1.11214844 77.19140625 1.2265625 C53.35972272 4.83849671 33.12080835 16.93658418 18.1875 35.75 C9.17188546 48.42820795 2.22664157 63.36032 1 79 C0.67 79 0.34 79 0 79 C0 52.93 0 26.86 0 0 Z " fill="#FDFDFD" transform="translate(0,0)"/>
</svg>
